<?xml version="1.0" encoding="UTF-8"?>
<svg id="Layer_2" xmlns="http://www.w3.org/2000/svg" viewBox="0 0 108.7 88.33">
  <defs>
    <style>
      .cls-1 {
        fill: #d60007;
      }
    </style>
  </defs>
  <g id="OBJECTS">
    <g>
      <path class="cls-1" d="M23.82,87.95c-.6-.07-1.1-.33-1.4-.73-.24-.31-.33-.7-.26-1.1.03-.21.07-.42.11-.63.13-.7.27-1.42.11-2.1-.07-.3-.2-.59-.32-.87-.19-.43-.38-.87-.37-1.34,0-.28.09-.56.16-.83.06-.2.12-.41.15-.62.1-.7-.25-1.45-.91-1.94-.41-.31-.9-.48-1.37-.48-.27,0-.52.05-.75.16l-.13.06c-.12.06-.25.13-.41.16-.02,0-.1,0-.12,0-.53,0-.94-.53-1.09-1.02-.06-.2-.1-.41-.14-.62-.07-.39-.13-.74-.3-1.05-.27-.49-.83-.79-1.46-.79-.75.02-1.31.36-1.56.88-.05.12-.1.26-.14.39-.1.31-.19.59-.42.78-.16.13-.36.19-.6.19-.33,0-.69-.12-.96-.23-.9-.35-1.63-.67-2.2-1.25-.54-.54-.96-1.49-.59-2.31.1-.2.24-.38.38-.57.12-.16.25-.32.34-.49.55-.98.08-2.22-.68-2.86-.57-.46-1.38-.72-2.27-.72-.24,0-.49.02-.75.06-.27.04-.54.1-.81.16-.43.1-.88.2-1.33.22h-.13c-.3,0-1.31-.06-1.77-.82-.26-.42-.28-.94-.29-1.45,0-.23-.01-.46-.04-.67-.07-.6-.32-1.16-.56-1.71-.13-.29-.25-.57-.35-.85-.17-.51-.49-1.78.28-2.57.46-.47,1.14-.59,1.8-.7.68-.12,1.33-.22,1.79-.68,1.06-1.05.17-2.93-.25-3.84-.95-2.06-1.28-3.72-1.04-5.22.27-1.62,1.56-3.46,3.44-3.67.13-.01.26-.02.39-.02.66,0,1.32.17,1.95.33.54.14,1.16.29,1.78.32.02,0,.25.01.25.01.53,0,1.06-.12,1.58-.23.55-.12,1.06-.23,1.57-.23.25,0,.48.03.71.08.33.08.65.23.95.38.23.11.47.22.71.31.36.12.73.19,1.11.19.86,0,1.72-.33,2.33-.9.26-.24.5-.52.72-.8.49-.59.98-1.2,1.72-1.33.1-.02.2-.03.3-.03.53,0,1.04.23,1.53.44.23.1.45.2.68.28.25.08.48.12.71.12.72,0,1.26-.42,1.84-.87l.28-.22.29-.23c.42-.34.72-.59,1.34-.66.01,0,.11,0,.12,0,.2,0,.4.06.59.12.25.07.47.14.7.14.09,0,.17,0,.25-.03.77-.19,1-1.09,1.2-1.88.04-.16.07-.28.11-.4.55-1.94,2.5-3.4,4.55-3.4.19,0,.37.01.56.04.31.04.62.11.93.19.46.11.91.21,1.36.23,1.41,0,2.73-.98,3.12-2.27.07-.23.13-.47.18-.72.18-.8.37-1.62,1.1-1.84.12-.04.25-.05.4-.05s.32.02.49.04c.19.02.35.04.51.04.28,0,.48-.06.65-.2.2-.17.29-.41.39-.66.04-.11.07-.2.11-.28.32-.69,1.08-1.15,1.88-1.15.26,0,.51.05.74.15.31.14.58.35.84.55.4.31.77.6,1.25.68.1.01.19.02.29.02,1.04,0,1.6-.96,2.06-1.74.39-.66.67-1.14,1.1-1.14.03,0,.11.01.14.02.24.06.47.15.71.24.44.17.85.33,1.29.33.3,0,.58-.07.87-.23.48-.26.8-.62.9-1.03.08-.34,0-.7-.24-1.04-.71-1-1.67-2.35-3.04-2.93-.12-.05-.25-.09-.38-.14-.35-.12-.71-.25-.99-.49-.4-.32-.62-.85-.63-1.51,0-.19.14-.35.33-.38h.1c.17-.04.33-.06.51-.07h.29c.51-.02.99-.02,1.4-.24.16-.07.29-.16.43-.25.18-.12.37-.24.57-.31.12-.04.25-.06.38-.06.43,0,.85.21,1.29.44.42.21.81.41,1.23.46.06,0,.12,0,.17,0,.37,0,.72-.11,1.04-.23.15-.06.29-.12.42-.17.47-.2.96-.41,1.47-.41.08,0,.16,0,.24.02.08,0,.17.03.26.05.17.04.32.07.47.07.6-.04.95-.54,1.25-.97.08-.11.15-.22.23-.31.6-.77,1.57-1.24,2.53-1.24.09,0,.17,0,.26.01.36.03.76.11,1.1.19.46.1.93.2,1.36.2.53,0,.91-.15,1.2-.48.59-.67.29-1.58,0-2.45-.16-.49-.32-.99-.35-1.46-.05-.71.28-1.45.88-1.97.48-.42,1.06-.65,1.64-.65.15,0,.3.02.44.05.76.16,1.5.88,1.34,1.65.67-.58,1.58-.92,2.5-.92.58,0,1.16.13,1.66.38l.14.07c.27.14.53.26.78.26.27-.01.48-.13.64-.34.32-.43.35-1.14.25-1.61l-.08-.35c-.16-.67-.35-1.44.08-2,.32-.41.85-.52,1.36-.64.48-.11.98-.22,1.32-.56.37-.39.43-.95.48-1.5.04-.43.08-.87.27-1.24.28-.57.87-.92,1.49-1.25.96-.52,1.73-.77,2.38-.77.48,0,.9.15,1.22.43.32.28.51.68.7,1.06.14.29.28.59.48.83.67.84,1.88,1.05,3.06,1.19.17.02.36.04.55.04.2,0,.38-.02.53-.08.71-.23,1.03-.91,1.36-1.64.24-.52.49-1.06.9-1.43.52-.46,1.23-.57,1.92-.68.38-.06.75-.12,1.09-.23.65-.21,1.22-.59,1.77-.95.34-.23.64-.42.94-.59.66-.35,2.37-1.2,4.1-1.51.02,0,.04,0,.07,0,.12,0,.23.06.3.16.08.12.09.27.02.4-.35.65-.86,1.24-1.34,1.81-.24.28-.47.55-.67.82l-6.28,8.25c-1.32,1.74-2.77,3.64-4.76,4.81-.83.49-1.74.84-2.62,1.17-1.01.38-1.95.75-2.81,1.31-1.46.96-2.54,2.45-3.59,3.89-1.2,1.65-2.44,3.35-4.27,4.35-.73.39-1.51.65-2.27.9-.41.14-.83.27-1.23.43-1.12.44-1.9,1.2-2.73,2-.43.42-.88.85-1.38,1.25-1.14.9-1.7,1.79-1.65,2.65.02.26.08.52.16.8.14.53.29,1.13.06,1.71-.31.79-1.1,1.1-1.79,1.38-.29.11-.57.22-.81.36-.5.29-.89.74-1.3,1.23-.24.29-.49.57-.75.83-.99.94-2.36,1.48-3.77,1.48-.52,0-1.02-.07-1.51-.22-.19-.06-.37-.12-.56-.19-.43-.16-.84-.3-1.24-.3-.08,0-.16,0-.24.02-.74.13-1.23.87-1.45,1.52-.15.46-.22.95-.3,1.47-.05.35-.1.7-.18,1.05-.38,1.7-1.41,3.25-2.84,4.26-.37.26-1.1.69-1.89.69-.33,0-.64-.08-.92-.23-.39-.21-.65-.54-.91-.86-.18-.22-.35-.43-.55-.58-.3-.23-.68-.34-1.18-.34s-.99.1-1.47.21c-.78.18-1.67.38-2.3.9-.9.73-1.02,1.69-1.15,2.79-.05.37-.09.74-.17,1.11-.17.81-.51,1.59-.85,2.34-.3.68-.62,1.38-.79,2.09-.29,1.19-.48,2.95.22,4.57.18.41.41.8.65,1.22.41.71.84,1.43.99,2.28.23,1.25-.18,2.45-.57,3.61l-.14.41c-.36,1.08-.69,2.46-.1,3.53.09.16.19.3.29.45.24.35.51.74.58,1.22.08.59-.17,1.12-.39,1.58-.17.36-.33.7-.34,1.04-.02.49.27.95.57,1.44l.12.19c.17.28.32.56.47.86.06.11.05.25-.02.36-.07.11-.18.18-.31.18h-.27c-.4,0-.75-.03-1.08-.09-.31-.06-.61-.19-.93-.33-.47-.2-.94-.4-1.4-.4-.21,0-.4.04-.59.13-.56.26-.83.87-1.08,1.47-.25.59-.51,1.21-1.08,1.47-.18.09-.37.13-.57.13-.54,0-1.05-.31-1.73-.76-.59-.39-1.2-.79-1.87-.83h-.12c-1.29,0-2.13,1.35-2.72,2.54-.83,1.67-1.72,2.47-2.71,2.47-.06,0-.13,0-.19,0-.33-.03-.66-.16-.97-.29-.15-.06-.29-.12-.44-.17-.32-.1-.71-.16-1.09-.16-.63,0-1.19.15-1.58.43-.24.17-.39.4-.53.62-.24.36-.48.73-1.08.73-.05,0-.11,0-.16,0Z"/>
      <path d="M107.95.75h0M107.95.75c-.51.93-1.37,1.77-1.99,2.58-2.11,2.77-4.21,5.54-6.32,8.31-1.33,1.75-2.71,3.54-4.6,4.65-1.72,1.01-3.77,1.39-5.44,2.49-3.19,2.09-4.48,6.4-7.84,8.21-1.09.59-2.31.86-3.46,1.31-1.79.7-2.75,2.16-4.21,3.3-.95.74-1.86,1.77-1.79,2.97.05.8.53,1.61.24,2.36-.36.92-1.58,1.05-2.44,1.55-.87.5-1.4,1.42-2.13,2.11-.93.89-2.22,1.38-3.51,1.38-.47,0-.94-.07-1.4-.2-.63-.19-1.26-.51-1.91-.51-.1,0-.2,0-.31.03-.86.15-1.47.94-1.74,1.77-.27.82-.3,1.71-.49,2.56-.36,1.61-1.34,3.08-2.69,4.03-.49.34-1.09.62-1.67.62-.26,0-.51-.05-.74-.18-.59-.32-.87-1.01-1.41-1.41-.41-.31-.89-.41-1.4-.41s-1.06.11-1.56.22c-.87.2-1.77.41-2.46.98-1.34,1.09-1.14,2.62-1.45,4.12-.3,1.49-1.27,2.88-1.63,4.42-.38,1.59-.41,3.31.24,4.81.5,1.16,1.39,2.17,1.61,3.41.24,1.29-.28,2.59-.69,3.84s-.71,2.68-.07,3.83c.28.52.75.96.82,1.54.12.89-.7,1.66-.74,2.56-.02.67.4,1.27.74,1.84.16.27.31.54.45.83-.08,0-.17,0-.25,0-.34,0-.68-.02-1.01-.09-.27-.05-.56-.18-.88-.32-.48-.2-.99-.43-1.53-.43-.25,0-.5.05-.75.16-.7.32-1,1.03-1.27,1.66-.23.55-.46,1.08-.89,1.28-.14.07-.27.1-.41.1-.43,0-.89-.28-1.52-.7-.63-.42-1.29-.85-2.05-.89-.05,0-.1,0-.15,0-1.54,0-2.47,1.56-3.06,2.75-.75,1.5-1.53,2.27-2.37,2.27-.05,0-.1,0-.15,0-.29-.02-.57-.14-.87-.26-.15-.06-.31-.13-.47-.18-.35-.12-.78-.18-1.22-.18-.64,0-1.31.15-1.8.5-.29.21-.47.48-.63.72-.25.38-.39.56-.76.56-.04,0-.08,0-.13,0-.49-.06-.9-.27-1.13-.58-.18-.23-.24-.51-.19-.81.03-.21.07-.42.11-.62.14-.73.29-1.49.1-2.26-.08-.33-.22-.64-.35-.94-.18-.41-.35-.79-.34-1.18,0-.24.08-.48.15-.74.06-.22.13-.44.16-.67.12-.84-.29-1.72-1.06-2.29-.49-.36-1.05-.55-1.6-.55-.31,0-.62.06-.9.19l-.14.07c-.11.05-.21.11-.3.12-.02,0-.04,0-.07,0-.32,0-.61-.37-.73-.75-.06-.2-.1-.4-.13-.6-.07-.38-.14-.77-.34-1.13-.33-.61-1.02-.99-1.79-.99-.03,0-.06,0-.08,0-.82.02-1.51.45-1.81,1.1-.06.14-.11.29-.16.44-.08.26-.15.48-.3.6-.1.08-.23.11-.37.11-.27,0-.58-.11-.82-.21-.86-.34-1.56-.63-2.07-1.16-.46-.45-.81-1.24-.51-1.89.08-.17.21-.33.34-.5.14-.18.27-.36.38-.54.65-1.14.12-2.59-.78-3.32-.65-.53-1.54-.8-2.51-.8-.26,0-.53.02-.81.06-.28.04-.56.11-.84.17-.44.1-.85.19-1.27.21-.04,0-.07,0-.11,0-.51,0-1.16-.16-1.45-.64-.21-.34-.22-.79-.24-1.26,0-.24-.01-.48-.04-.71-.08-.65-.34-1.24-.59-1.81-.12-.27-.24-.55-.34-.82-.12-.35-.45-1.52.19-2.18.38-.38.97-.49,1.6-.59.71-.12,1.44-.24,1.99-.78,1.24-1.23.29-3.28-.17-4.27-.92-1.99-1.24-3.58-1.01-5,.24-1.49,1.42-3.17,3.11-3.36.12-.01.23-.02.35-.02.6,0,1.22.15,1.86.32.6.15,1.22.3,1.85.33,0,0,0,0,.01,0s0,0,.01,0c.08,0,.16.01.24.01h0c.57,0,1.12-.12,1.66-.24.52-.11,1.01-.22,1.49-.22.21,0,.42.02.62.07.29.07.58.21.88.35.25.12.5.24.75.32.4.14.81.21,1.23.21.95,0,1.89-.35,2.59-1,.28-.25.52-.55.76-.84.46-.56.89-1.09,1.5-1.2.08-.01.16-.02.24-.02.45,0,.91.2,1.39.42.23.1.46.2.69.28.3.1.58.15.84.15.84,0,1.46-.48,2.07-.95l.28-.22c.11-.08.2-.16.3-.24.4-.33.64-.52,1.15-.58.03,0,.05,0,.08,0,.16,0,.34.06.52.11.23.07.48.14.76.14.11,0,.22-.01.33-.04.98-.24,1.26-1.3,1.48-2.15.03-.13.07-.26.1-.39.51-1.81,2.32-3.13,4.19-3.13.17,0,.34.01.51.03.31.04.61.11.92.18.45.11.92.22,1.42.23h.05c1.53,0,3-1.08,3.44-2.54.07-.23.13-.49.19-.75.19-.85.36-1.42.85-1.56.09-.03.19-.04.3-.04.15,0,.3.02.47.04.17.02.35.04.53.04.31,0,.61-.06.89-.28.28-.23.4-.54.5-.82.03-.09.06-.17.1-.25.27-.57.91-.93,1.55-.93.2,0,.41.04.6.12.26.12.5.31.76.51.42.32.85.66,1.42.75.12.02.24.03.35.03,1.26,0,1.9-1.11,2.39-1.94.27-.46.54-.94.77-.94.01,0,.03,0,.04,0,.24.06.48.15.71.24.42.16.87.34,1.38.34.32,0,.67-.07,1.04-.27.58-.31.97-.76,1.09-1.28.11-.45,0-.92-.3-1.34-.73-1.03-1.72-2.44-3.2-3.06-.13-.05-.27-.1-.4-.15-.33-.12-.64-.22-.87-.42-.35-.28-.49-.74-.49-1.22.19-.03.38-.06.57-.06h.29c.53-.02,1.07-.03,1.57-.28.16-.08.32-.18.47-.28.17-.11.32-.21.47-.27.09-.03.18-.04.26-.04.35,0,.71.19,1.13.4.42.22.86.44,1.36.49.07,0,.14.01.21.01.44,0,.83-.13,1.17-.26,0,0,.01,0,.02,0,0,0,0,0,0,0,.14-.05.28-.11.41-.17.46-.19.89-.37,1.32-.37.06,0,.13,0,.19.01.09,0,.18.03.27.05.15.04.33.07.52.07.03,0,.06,0,.09,0,.71-.05,1.13-.65,1.47-1.13.07-.1.14-.21.22-.3.53-.68,1.39-1.09,2.23-1.09.08,0,.15,0,.23.01.33.03.69.1,1.06.18.47.1.96.2,1.43.2.55,0,1.07-.14,1.48-.6.73-.83.39-1.89.08-2.82-.15-.46-.3-.94-.33-1.37-.04-.59.24-1.21.76-1.66.41-.36.91-.56,1.4-.56.12,0,.24.01.36.04.59.12,1.16.67,1.06,1.21-.03.16.04.32.18.4.06.03.12.05.19.05.09,0,.18-.03.25-.09.62-.54,1.44-.82,2.25-.82.51,0,1.03.11,1.49.34l.14.07c.27.14.6.3.96.3.01,0,.03,0,.04,0,.36-.02.67-.19.9-.49.4-.53.44-1.35.31-1.92l-.08-.35c-.15-.62-.31-1.27.01-1.68.24-.3.68-.4,1.15-.5.51-.11,1.09-.24,1.5-.67.47-.49.53-1.15.58-1.73.04-.41.07-.8.23-1.11.24-.47.76-.78,1.33-1.09.89-.49,1.62-.73,2.2-.73.39,0,.72.11.98.34.26.23.43.58.61.94.15.3.3.62.52.9.76.96,2.08,1.18,3.31,1.33.19.02.39.04.6.04s.43-.02.65-.09c.87-.28,1.23-1.07,1.58-1.83.24-.51.46-.99.81-1.31.44-.38,1.07-.49,1.73-.59.38-.06.77-.13,1.14-.25.69-.22,1.29-.62,1.86-1,.3-.2.6-.4.92-.57.8-.43,2.39-1.19,3.99-1.47M107.95,0s-.03,0-.04,0c-.04,0-.07,0-.1.01-1.71.31-3.36,1.1-4.19,1.55-.33.18-.63.38-.93.57l-.05.03c-.53.35-1.08.71-1.68.91-.31.1-.65.16-1.01.22-.76.12-1.52.25-2.12.77-.48.42-.74,1-1,1.56-.36.78-.62,1.27-1.13,1.44-.12.04-.25.06-.42.06-.18,0-.35-.02-.52-.04-1.09-.13-2.22-.32-2.8-1.05-.17-.22-.3-.48-.43-.76-.2-.42-.41-.85-.79-1.18-.4-.35-.89-.52-1.47-.52-.71,0-1.54.27-2.56.82-.65.35-1.31.75-1.65,1.41-.22.44-.26.92-.3,1.38-.05.5-.09.98-.38,1.28-.25.26-.7.36-1.12.45-.55.12-1.18.26-1.58.77-.54.69-.32,1.59-.15,2.32l.08.35c.09.39.06.98-.18,1.3-.09.12-.2.18-.34.19-.19,0-.43-.13-.61-.22l-.14-.07c-.56-.28-1.19-.43-1.83-.43-.78,0-1.54.21-2.19.6-.22-.66-.89-1.18-1.59-1.33-.16-.04-.34-.05-.52-.05-.67,0-1.34.26-1.89.74-.69.6-1.07,1.46-1.01,2.29.03.52.2,1.03.36,1.53.32.97.49,1.63.07,2.1-.22.24-.49.35-.92.35-.39,0-.84-.09-1.27-.19-.37-.08-.77-.17-1.16-.2-.09,0-.19-.01-.29-.01-1.07,0-2.16.53-2.82,1.38-.08.11-.16.22-.24.34-.32.46-.58.78-.91.81,0,0,0,0,0,0-.14,0-.26-.03-.38-.05-.15-.03-.25-.05-.35-.07-.08-.01-.17-.02-.27-.02-.58,0-1.13.23-1.61.43-.13.06-.26.11-.39.16-.3.11-.61.21-.92.21-.05,0-.09,0-.14,0-.35-.04-.71-.22-1.09-.41-.47-.24-.94-.48-1.47-.48-.17,0-.34.03-.5.08-.25.08-.47.23-.65.35-.13.09-.26.17-.38.23-.36.18-.8.19-1.26.2h-.3c-.19.01-.38.04-.56.06h-.1c-.37.06-.65.39-.65.76,0,.78.27,1.4.77,1.8.33.27.71.41,1.09.54.13.05.25.09.37.14,1.27.54,2.19,1.84,2.86,2.79.18.26.25.51.19.74-.07.3-.32.58-.71.79-.23.12-.46.18-.69.18-.36,0-.72-.14-1.1-.29,0,0-.05-.02-.05-.02-.24-.09-.48-.19-.76-.26-.06-.01-.16-.03-.22-.03-.65,0-1.01.62-1.4,1.28l.62.43-.65-.38c-.53.91-.97,1.55-1.74,1.55-.08,0-.15,0-.24-.02-.37-.06-.7-.31-1.07-.6-.28-.22-.57-.44-.91-.6-.29-.12-.59-.19-.9-.19-.95,0-1.84.55-2.23,1.36-.04.09-.08.18-.11.28-.09.24-.16.42-.29.53-.07.06-.17.11-.41.11-.15,0-.3-.02-.44-.04-.22-.02-.39-.04-.56-.04-.19,0-.36.02-.52.07-.94.28-1.17,1.3-1.36,2.11-.05.24-.11.47-.17.69-.35,1.15-1.52,2.01-2.73,2.01-.44-.01-.86-.11-1.29-.21-.33-.08-.66-.15-1-.2-.2-.03-.4-.04-.61-.04-2.21,0-4.32,1.58-4.91,3.68-.03.11-.06.23-.1.36-.23.91-.43,1.53-.94,1.65-.05.01-.1.02-.15.02-.17,0-.36-.06-.54-.11-.25-.08-.49-.14-.74-.14-.06,0-.13,0-.19.01-.71.08-1.08.39-1.51.74-.09.07-.18.15-.28.22l-.28.21c-.55.43-1.02.79-1.61.79-.19,0-.38-.04-.6-.11-.21-.07-.42-.17-.63-.26-.54-.24-1.09-.48-1.69-.48-.12,0-.24,0-.36.03-.88.16-1.45.85-1.95,1.46-.22.27-.45.55-.69.76-.55.51-1.31.8-2.08.8-.34,0-.67-.05-.98-.16-.22-.08-.45-.18-.67-.29-.32-.15-.65-.31-1.02-.4-.25-.06-.51-.09-.8-.09-.56,0-1.11.12-1.64.24-.51.11-1.02.22-1.52.23-.03,0-.06,0-.1,0h-.1s0,0-.01,0c0,0-.01,0-.02,0-.52-.03-1.06-.14-1.7-.31-.66-.17-1.34-.34-2.04-.34-.14,0-.29,0-.43.02-2.06.23-3.48,2.22-3.77,3.98-.26,1.58.08,3.31,1.07,5.44.39.83,1.2,2.56.33,3.42-.37.37-.94.47-1.58.58-.69.12-1.47.25-2.01.81-.92.93-.56,2.37-.37,2.95.11.3.23.58.35.87.24.56.47,1.07.54,1.62.02.2.03.41.04.64.01.53.03,1.13.35,1.64.38.62,1.16.99,2.09.99.05,0,.1,0,.15,0,.49-.02.95-.13,1.4-.23.26-.06.52-.12.79-.16.23-.04.47-.05.69-.05.8,0,1.52.23,2.04.64.63.52,1.04,1.58.59,2.37-.08.15-.2.31-.32.45-.15.19-.3.39-.42.62-.46,1.01,0,2.1.65,2.76.62.63,1.39.96,2.33,1.33.3.12.69.26,1.09.26.33,0,.61-.09.84-.27.32-.26.44-.63.55-.95.04-.13.08-.25.13-.36.18-.39.62-.64,1.15-.66h.06c.5,0,.93.23,1.13.59.14.26.2.57.26.91.04.23.08.46.15.7.2.64.72,1.28,1.44,1.28.06,0,.12,0,.18-.01.21-.03.39-.13.52-.19l.13-.07c.16-.07.36-.11.57-.11.39,0,.8.14,1.15.4.55.41.84,1.02.76,1.59-.03.18-.08.37-.14.56-.08.29-.17.6-.18.93-.02.55.19,1.02.4,1.49.13.29.24.55.31.82.14.61.02,1.25-.11,1.94-.04.23-.09.44-.12.66-.08.5.03.98.33,1.38.36.47.96.79,1.64.87.09,0,.16.01.22.01.8,0,1.14-.52,1.39-.9.13-.2.26-.4.44-.52.32-.23.81-.36,1.36-.36.35,0,.69.05.98.15.14.05.27.1.41.16.32.13.69.29,1.09.32.06,0,.13.01.21.01,1.14,0,2.14-.88,3.04-2.68.54-1.09,1.31-2.33,2.39-2.33.03,0,.07,0,.1,0,.57.03,1.11.39,1.68.77.73.48,1.29.82,1.93.82.26,0,.5-.06.74-.17.69-.33.99-1.04,1.26-1.66.23-.55.46-1.07.89-1.27.14-.06.28-.09.44-.09.39,0,.82.19,1.24.37.34.15.68.29,1.02.36.36.07.74.11,1.16.11.09,0,.18,0,.28,0,.25,0,.49-.14.62-.36s.14-.49.03-.72c-.15-.31-.31-.61-.48-.89l-.12-.19c-.27-.44-.53-.86-.52-1.24,0-.26.15-.56.31-.89.24-.51.52-1.1.42-1.79-.08-.57-.38-1.01-.64-1.39-.09-.14-.19-.27-.27-.42-.52-.94-.21-2.22.13-3.23l.14-.41c.39-1.15.83-2.46.58-3.8-.17-.91-.61-1.67-1.04-2.4-.24-.4-.46-.79-.63-1.18-.66-1.53-.47-3.2-.2-4.34.16-.67.45-1.33.76-2.02.35-.77.7-1.57.88-2.42.08-.39.13-.77.17-1.14.13-1.07.23-1.91,1.02-2.55.57-.46,1.41-.66,2.15-.83.46-.11.95-.2,1.39-.2.41,0,.72.08.95.26.16.12.32.32.48.52.26.33.56.7,1.02.95.33.18.7.27,1.1.27.66,0,1.41-.27,2.1-.76,1.5-1.06,2.59-2.69,2.99-4.48.08-.36.13-.73.18-1.08.07-.5.14-.97.28-1.41.17-.52.58-1.17,1.15-1.26.06-.01.12-.01.18-.01.33,0,.71.14,1.11.28.19.07.38.14.58.2.52.16,1.06.23,1.61.23,1.5,0,2.97-.58,4.02-1.59.29-.27.54-.57.78-.86.39-.46.76-.89,1.2-1.15.22-.12.48-.23.76-.34.73-.29,1.64-.64,2.01-1.59.27-.7.09-1.39-.05-1.94-.07-.26-.13-.51-.15-.73-.04-.73.46-1.52,1.5-2.34.52-.41.97-.85,1.41-1.27.8-.78,1.56-1.51,2.61-1.92.39-.15.79-.28,1.21-.42.77-.25,1.58-.52,2.33-.93,1.91-1.03,3.18-2.77,4.4-4.45,1.08-1.48,2.09-2.87,3.49-3.79.82-.54,1.75-.89,2.74-1.27.89-.34,1.81-.69,2.67-1.2,2.05-1.2,3.52-3.14,4.82-4.85l6.32-8.31c.2-.26.43-.53.66-.81.49-.57.99-1.16,1.36-1.82.08-.12.12-.26.12-.41C108.7.34,108.37,0,107.96,0c0,0,0,0,0,0h0ZM107.95,1.5h0,0Z"/>
    </g>
  </g>
</svg>