<?xml version="1.0" encoding="UTF-8"?>
<svg id="Layer_2" xmlns="http://www.w3.org/2000/svg" viewBox="0 0 37.55 28.55">
  <defs>
    <style>
      .cls-1 {
        fill: #d60007;
      }
    </style>
  </defs>
  <g id="OBJECTS">
    <g>
      <path class="cls-1" d="M3.65,28.18c-1.42,0-2.55-1.3-3-2.52-.11-.31-.2-.63-.27-.95-.02-.07-.01-.14.01-.21.08-.22.14-.46.18-.71.09-.55.25-1.07.48-1.55.06-.14.13-.27.21-.4.17-.31.33-.62.43-.94.17-.55.16-1.14.16-1.7,0-.21,0-.41,0-.62.06-1.77.94-3.88,2.77-4.59.36-.14.74-.22,1.13-.3.58-.12,1.19-.25,1.69-.6.25-.17.46-.41.67-.63.18-.2.35-.38.54-.53.6-.48,1.34-.7,2.28-.7s1.93.23,2.79.44c.34.08.67.16,1,.16.08,0,.16,0,.24-.01.89-.11,1.63-1.03,1.54-1.92-.01-.14-.04-.27-.07-.4-.04-.21-.08-.41-.08-.61.02-.44.29-.83.55-1.21.29-.42.58-.84.53-1.33-.01-.16-.07-.32-.12-.48-.08-.24-.16-.49-.1-.74.15-.56.75-.59,1.38-.61.37-.02.75-.03,1.07-.15.6-.23.88-.83,1.16-1.41.15-.31.29-.6.47-.85.55-.78,1.49-1.18,2.32-1.53.2-.08.42-.17.63-.17,0,0,.1,0,.1,0,.21.03.44.16.61.36.48.56.52,1.4.54,2.02.02.69.04,1.47.48,2.04.23.3.65.5,1.04.5.38-.02.62-.16.75-.39.06-.11.1-.22.14-.33.06-.16.11-.31.22-.43.18-.17.45-.23.62-.26,1.01-.18,2.08-.33,3.22-.45.13-.01.26-.02.38-.02.25,0,.6.03.86.27.32.29.32.75.32,1.23,0,.48,0,.93.31,1.24.29.28.7.3,1.14.31.2,0,.36.01.5.03.95.14,1.72,1.06,1.68,2.02-.03.74-.46,1.38-.88,2-.43.64-.84,1.25-.88,1.98,0,.17,0,.34.02.52.02.27.04.56-.03.82-.05.17-.13.34-.28.53-.07.09-.18.15-.3.15h0c-.12,0-.23-.05-.3-.15-.1-.12-.23-.23-.38-.29-.34-.15-.75-.16-1.15-.17-.23,0-.46,0-.69,0-1.28,0-2.71.12-3.67,1-.39.36-.68.83-.98,1.32-.31.5-.63,1.03-1.08,1.45-.98.93-2.3,1.18-3.58,1.42-.94.18-1.9.36-2.69.82-.75.43-1.32,1.1-1.93,1.8-.27.32-.55.63-.84.93-1.39,1.42-3.29,2.47-5.64,3.15-.97.28-2.02.5-3.22.66-.25.04-.51.05-.78.06-.58.03-1.13.06-1.55.33-.19.12-.37.25-.55.39-.53.39-1.08.79-1.78.91-.12.02-.25.03-.37.03h0Z"/>
      <path d="M24.25.75s.03,0,.04,0c.12.02.27.11.38.24.4.46.43,1.2.45,1.79.02.71.04,1.58.56,2.26.3.39.83.64,1.34.64.03,0,.07,0,.1,0,.43-.03.79-.24.98-.57.08-.13.13-.27.17-.39.04-.12.08-.23.14-.29.09-.09.3-.13.43-.16.99-.18,2.06-.33,3.18-.44.12-.01.24-.02.35-.02.24,0,.46.04.6.17.21.19.2.55.2.96,0,.51,0,1.08.42,1.5.4.39.92.41,1.39.42.16,0,.31,0,.46.03.75.11,1.39.87,1.36,1.63-.03.63-.41,1.2-.82,1.81-.44.66-.9,1.33-.95,2.17,0,.19,0,.38.02.57.02.25.04.5-.01.7-.04.13-.12.27-.22.4-.14-.17-.32-.32-.52-.41-.4-.18-.85-.19-1.29-.2-.23,0-.46,0-.69,0-1.42,0-2.9.15-3.92,1.1-.85.79-1.22,1.98-2.06,2.78-1.61,1.52-4.28,1.07-6.2,2.18-1.15.67-1.91,1.84-2.85,2.79-1.5,1.52-3.45,2.47-5.48,3.05-1.04.3-2.1.5-3.17.65-.82.11-1.77-.01-2.48.44-.71.46-1.35,1.1-2.19,1.24-.1.02-.21.02-.31.02-1.19,0-2.22-1.11-2.64-2.27-.11-.3-.19-.6-.26-.91.08-.24.15-.49.2-.77.08-.51.24-1,.45-1.45.07-.14.14-.27.21-.41.16-.31.33-.63.44-.99.18-.61.18-1.22.17-1.82,0-.2,0-.4,0-.6.05-1.65.85-3.6,2.53-4.26.33-.13.69-.2,1.07-.28.62-.13,1.26-.27,1.83-.65.28-.2.51-.45.73-.69.16-.17.32-.35.5-.5.57-.46,1.27-.62,2.04-.62.85,0,1.78.2,2.7.43.36.09.72.17,1.09.17.1,0,.19,0,.29-.02,1.11-.14,1.98-1.23,1.86-2.33-.01-.15-.04-.3-.08-.46-.04-.18-.07-.35-.06-.5.02-.34.24-.67.49-1.01.31-.45.66-.95.6-1.58-.02-.2-.08-.39-.14-.56-.07-.21-.13-.39-.09-.53.07-.25.32-.3,1.04-.33.4-.02.82-.03,1.19-.18.73-.28,1.07-.98,1.37-1.6.14-.29.27-.57.43-.8.49-.69,1.37-1.07,2.16-1.4.17-.07.35-.14.48-.14M24.25,0c-.29,0-.55.11-.77.2-.85.36-1.88.8-2.49,1.67-.2.29-.35.6-.5.91-.29.61-.53,1.06-.96,1.22-.26.1-.59.11-.95.13-.68.03-1.52.06-1.73.89-.09.36.02.69.11.96.05.14.09.28.1.39.03.36-.21.71-.47,1.08-.28.4-.59.86-.62,1.41-.01.25.04.48.08.68.03.13.05.25.06.37.07.72-.51,1.44-1.21,1.53-.07,0-.13.01-.2.01-.29,0-.59-.07-.91-.15-.88-.22-1.9-.45-2.88-.45-1.03,0-1.85.26-2.51.78-.22.18-.4.37-.57.56-.22.24-.41.44-.63.6-.44.3-1,.42-1.55.53-.4.08-.8.17-1.19.32-1.99.78-2.95,3.04-3.01,4.93,0,.21,0,.42,0,.63,0,.56.01,1.09-.14,1.59-.09.29-.24.57-.39.86-.08.14-.15.29-.22.43-.24.51-.42,1.06-.52,1.65-.03.2-.09.41-.17.65-.04.13-.05.28-.02.41.09.4.18.71.29.99.5,1.37,1.73,2.76,3.35,2.76.14,0,.29-.01.43-.03.79-.13,1.4-.58,1.94-.97.18-.13.35-.26.53-.37.33-.21.84-.24,1.37-.27.26-.01.54-.03.81-.07,1.22-.17,2.29-.39,3.27-.67,2.41-.69,4.37-1.79,5.81-3.25.3-.31.58-.63.86-.95.59-.68,1.14-1.32,1.83-1.72.73-.42,1.63-.59,2.57-.77,1.33-.25,2.7-.51,3.76-1.51.49-.46.82-1.01,1.14-1.53.29-.47.56-.92.92-1.24.86-.79,2.21-.9,3.41-.9.23,0,.45,0,.68,0,.36,0,.73.02,1,.14.09.04.18.11.23.18.14.18.36.29.59.29,0,0,0,0,0,0,.24,0,.46-.12.59-.3.17-.23.28-.44.34-.65.09-.34.06-.67.04-.96-.01-.17-.02-.33-.02-.47.04-.63.42-1.19.82-1.79.45-.66.91-1.35.94-2.2.04-1.14-.87-2.24-2-2.4-.16-.02-.33-.03-.5-.04-.49-.02-.76-.04-.94-.21-.18-.18-.19-.48-.19-.96,0-.52,0-1.11-.45-1.53-.37-.36-.92-.36-1.1-.36-.13,0-.27,0-.41.02-1.15.12-2.24.27-3.24.45-.23.05-.58.12-.83.36-.18.19-.26.4-.31.56-.04.11-.07.2-.11.26-.08.13-.21.2-.39.22,0,0,0,0,0,0-.33,0-.63-.14-.79-.35-.37-.48-.39-1.19-.4-1.82-.03-.69-.07-1.61-.63-2.26-.23-.26-.53-.44-.83-.49-.04,0-.12-.01-.16-.01h0Z"/>
    </g>
  </g>
</svg>