<?xml version="1.0" encoding="UTF-8"?>
<svg id="Layer_2" xmlns="http://www.w3.org/2000/svg" viewBox="0 0 79.42 66.1">
  <defs>
    <style>
      .cls-1 {
        fill: #d60007;
      }
    </style>
  </defs>
  <g id="OBJECTS">
    <g>
      <path class="cls-1" d="M1.23,65.73c-.07,0-.13-.02-.19-.05-.1-.06-.17-.17-.18-.28-.06-.61-.22-1.2-.45-1.75-.07-.16-.02-.35.13-.46.62-.43,1.02-1.17,1.04-1.92,0-.33-.05-.68-.11-1.02-.12-.68-.23-1.32.13-1.85.4-.59,1.09-.64,1.71-.64.17,0,.34,0,.54.01.19,0,.37.01.55.01.51,0,1.1-.04,1.56-.36.6-.41.81-1.16,1.01-1.88.08-.28.15-.52.23-.76.28-.77.75-1.41,1.26-2.1.28-.38.56-.76.8-1.17.65-1.06,1.05-2.58.25-3.63-.11-.14-.23-.27-.36-.4-.18-.19-.39-.4-.51-.65-.26-.57-.07-1.19.1-1.8.06-.21.12-.42.17-.62.42-1.99-.85-3.77-2.07-5.49-.32-.45-.63-.89-.91-1.32-.5-.78-.62-1.41-.37-1.89.11-.22.31-.4.46-.54.89-.79,1.67-1.17,2.39-1.17.13,0,.25.01.37.04.7.13,1.23.64,1.75,1.13.1.1.21.2.31.29.61.54,1.22.83,1.77.83.19,0,.36-.03.53-.1.92-.39,1.15-1.66.62-3.41l-1.23-3.96c-.15-.49-.3-.98-.57-1.41-.07-.12-.15-.24-.23-.35-.17-.25-.34-.5-.42-.78-.21-.67.13-1.5.81-1.97.48-.33,1.11-.5,1.88-.5.1,0,.21,0,.32,0,.09,0,.18.01.28.01.21,0,.36-.04.48-.13.25-.18.28-.52.32-.84v-.12c.19-1.65,1.79-3.1,3.45-3.1h.15c.28.02.56.06.84.11.34.05.67.11.99.11.23,0,.44-.03.63-.08.63-.19,1.08-.68,1.55-1.2.11-.12.22-.24.33-.35.26-.27.94-.89,1.7-.89.17,0,.33.03.48.09-.44-1.27-.52-2.31-.25-3.19.27-.89,1.14-1.82,2.22-1.82.06,0,.12,0,.19,0-.86-1.26-1.09-2.93-.63-4.56.46-1.64,1.52-2.94,2.92-3.56.14-.06.28-.12.41-.17.38-.15.76-.3,1.08-.55.17-.13.34-.27.52-.42,1.09-.89,2.08-1.63,3.12-1.63.64,0,1.24.27,1.83.83.08.08.15.15.22.23.22.23.4.42.62.56.27.17.6.27.97.27.39,0,.81-.1,1.21-.3.46-.23.87-.54,1.26-.85.2-.15.4-.31.61-.45,1.02-.71,2.2-1.19,3.4-1.39.25-.04.52-.07.8-.07.38,0,.71.06.99.18.5.21,1.02.74.98,1.4-.03.47-.33.83-.64,1.22-.21.26-.4.49-.54.77-.28.58-.16,1.31.32,1.89.38.47.9.74,1.43.74.12,0,.24-.01.36-.04.31-.08.58-.23.87-.39.19-.11.34-.19.5-.26.5-.23,1.07-.34,1.75-.34.61,0,1.24.08,2.06.22.23.03.41.07.57.17.22.14.33.35.46.58.06.1.12.21.19.31.41.56,1.11.81,2.33.81.13,0,.25,0,.38,0,.39-.01,1.21-.04,1.52-.6.13-.23.14-.5.15-.81,0-1.2.03-2.4.05-3.6,0-.55.15-1.26.53-1.61.15-.13.31-.2.48-.2.02,0,.09,0,.11,0,.36.03.65.35.88.61,0,0,1.61,1.89,1.93,2.27.23.27.47.55.81.71.19.09.41.13.67.13.39,0,.8-.1,1.19-.2.42-.1.79-.19,1.12-.19.36,0,.64.11.87.32.22.21.35.52.47.81.17.42.33.81.73.96.16.06.33.06.49.07.11,0,.19,0,.28.02.96.09,1.67.99,2.17,2.73.33-.1.68-.15,1.04-.15,1.53,0,3.16.96,4.16,2.46.52.77.97,1.69,1.38,2.82.04.12.02.25-.05.35-.07.1-.18.16-.31.16,0,0-.98-.02-.98-.02-.21,0-.4-.01-.59-.01-.89,0-1.37.14-1.88.94-.04.06-.09.11-.15.14-1,.5-2.13,1.07-2.89,1.94-.66.75-1.12,1.96-.65,2.97.17.37.45.68.75,1.02.18.2.36.4.52.61.45.6.75,1.31.86,2.05.16.99-.02,1.96-.5,2.75-.57.95-1.47,1.17-2.34,1.38-.3.07-.6.14-.89.25-1.28.47-1.52,1.46-1.76,2.91-.2,1.24-1.26,2.33-2.2,3.3-.17.17-.33.34-.48.5-2.5,2.68-5.07,4.09-7.63,4.2-.11,0-.22,0-.33,0-.87,0-1.72-.13-2.55-.26l-.44-.07c-.88-.13-1.19-.4-1.58-.74-.14-.12-.29-.25-.5-.4-.09-.06-.19-.09-.32-.09-.18,0-.38.07-.54.18-.18.13-.28.31-.41.52-.11.18-.22.38-.4.55-.19.2-.42.33-.63.46-.16.09-.32.19-.46.31-.81.74-.99,1.65-1.21,2.72-.05.27-.11.55-.18.82-.04.15-.18.31-.34.33-1.8.21-3.62,1.08-4.54,1.57-.32.18-.63.38-.94.59-.58.38-1.13.74-1.77.95-.34.11-.7.17-1.07.23-.73.12-1.41.23-1.94.69-.41.37-.66.91-.9,1.43-.33.72-.65,1.41-1.36,1.64-.15.05-.32.08-.52.08-.19,0-.39-.02-.61-.04-1.15-.14-2.33-.34-3-1.19-.2-.25-.33-.53-.48-.83-.2-.41-.38-.78-.7-1.06-.33-.29-.73-.43-1.23-.43-.96,0-1.95.54-2.37.77-.62.33-1.21.68-1.49,1.25-.19.38-.23.82-.27,1.24-.05.58-.1,1.11-.48,1.5-.34.34-.83.46-1.31.56-.52.12-1.05.23-1.37.64-.43.55-.24,1.32-.08,2l.08.34c.13.59.03,1.25-.25,1.62-.2.26-.44.33-.61.34h0c-.29,0-.54-.12-.81-.26l-.14-.07c-.5-.25-1.07-.38-1.65-.38-.71,0-1.4.19-2,.54-.06.04-.13.05-.19.05-.04,0-.09,0-.13-.02-.11-.04-.19-.12-.23-.23-.17-.51-.71-.95-1.31-1.08-.15-.03-.29-.05-.44-.05-.58,0-1.16.23-1.64.65-.61.53-.94,1.26-.88,1.97.03.48.19.98.35,1.46.3.92.58,1.79,0,2.46-.29.32-.68.48-1.19.48-.4,0-.88-.09-1.37-.2-.38-.08-.76-.16-1.1-.19-.09,0-.17-.01-.25-.01-.98,0-1.93.46-2.54,1.24-.08.1-.15.2-.23.31-.32.46-.66.93-1.19.97h-.02c-.2,0-.35-.03-.47-.06-.1-.02-.2-.05-.3-.06-.09-.01-.17-.02-.25-.02-.46,0-.88.17-1.4.38-.05.02-.1.03-.15.03Z"/>
      <path d="M45.99.75c.29,0,.58.04.85.15.4.17.78.58.75,1.03-.02.35-.27.66-.56,1.01-.21.25-.43.52-.58.83-.34.71-.2,1.59.37,2.29.46.56,1.09.87,1.72.87.15,0,.3-.02.45-.06.36-.09.67-.26.97-.43.15-.08.3-.17.46-.24.49-.22,1.02-.31,1.59-.31.62,0,1.29.1,2,.22.19.03.34.06.44.12.13.09.22.25.33.44.06.11.13.23.21.34.58.81,1.59.97,2.64.97.13,0,.26,0,.39,0,.43-.02,1.42-.05,1.84-.79.18-.31.19-.65.2-.99,0-1.21.03-2.4.05-3.6,0-.59.17-1.12.41-1.34.07-.06.14-.1.23-.1.02,0,.04,0,.05,0,.24.02.46.27.66.49.32.38.64.75.96,1.13.32.37.64.75.96,1.13.24.29.52.61.93.81.27.12.55.17.83.17.43,0,.87-.11,1.28-.21.42-.1.75-.18,1.03-.18.25,0,.45.06.61.22.17.16.27.42.39.69.18.45.39.95.94,1.16.22.08.43.09.62.09.08,0,.16,0,.24.01.79.08,1.4.88,1.85,2.47.03.1.09.18.18.23.06.03.12.05.18.05.04,0,.07,0,.11-.02.31-.09.62-.14.93-.14,1.53,0,3.02,1.05,3.84,2.29.55.82.98,1.77,1.34,2.74-.19,0-.38,0-.56-.01-.37,0-.71-.02-1.01-.02-.94,0-1.59.15-2.2,1.12-1.09.55-2.2,1.11-3.01,2.03-.8.91-1.23,2.27-.71,3.37.3.65.88,1.12,1.3,1.69.41.55.69,1.21.79,1.89.14.85,0,1.76-.45,2.5-.68,1.13-1.92,1.06-3.04,1.47-1.52.55-1.78,1.82-2,3.21-.21,1.34-1.63,2.58-2.58,3.6-1.97,2.11-4.49,3.96-7.37,4.08-.1,0-.21,0-.31,0-.99,0-1.96-.18-2.93-.33-1.06-.16-1.12-.49-1.92-1.07-.16-.11-.35-.17-.54-.17-.27,0-.54.1-.76.25-.42.3-.52.77-.86,1.11-.3.31-.75.46-1.08.76-1.12,1.02-1.16,2.36-1.49,3.73,0,.02-.01.03-.02.05-1.76.21-3.56,1.02-4.67,1.62-.33.18-.65.39-.97.6-.56.37-1.09.72-1.68.91-.32.1-.67.16-1.04.22-.74.12-1.5.25-2.11.77-.47.42-.74,1-1,1.56-.31.67-.58,1.26-1.14,1.44-.12.04-.26.06-.41.06-.17,0-.36-.02-.57-.04-1.07-.13-2.16-.31-2.75-1.05-.17-.22-.3-.48-.44-.76-.2-.42-.41-.85-.79-1.18-.44-.39-.96-.52-1.47-.52-1.05,0-2.11.58-2.55.82-.68.36-1.31.74-1.65,1.41-.22.44-.26.92-.31,1.38-.05.53-.09.98-.37,1.28-.26.26-.68.36-1.12.46-.55.12-1.18.26-1.58.77-.54.69-.32,1.59-.15,2.32l.08.34c.11.47.03,1.02-.18,1.3-.09.12-.2.18-.33.19,0,0-.02,0-.02,0-.17,0-.39-.11-.6-.22l-.15-.07c-.56-.28-1.19-.42-1.82-.42-.77,0-1.53.2-2.19.6-.22-.66-.89-1.18-1.58-1.33-.17-.04-.35-.06-.52-.06-.66,0-1.34.26-1.89.74-.69.6-1.07,1.46-1.01,2.28.03.52.2,1.05.37,1.55.32.99.48,1.62.07,2.09-.23.26-.52.35-.91.35-.35,0-.78-.08-1.29-.19-.38-.08-.78-.16-1.15-.19-.09,0-.19-.01-.28-.01-1.08,0-2.15.51-2.83,1.38-.08.1-.16.22-.24.33-.28.4-.55.79-.91.81-.01,0-.02,0-.04,0-.1,0-.22-.03-.35-.06-.12-.03-.23-.05-.34-.06-.1-.01-.2-.02-.29-.02-.55,0-1.05.2-1.54.41-.07-.64-.23-1.27-.48-1.86.72-.5,1.18-1.34,1.2-2.22,0-.37-.06-.74-.12-1.1-.11-.62-.2-1.16.08-1.56.27-.4.72-.48,1.4-.48.16,0,.33,0,.52.01.18,0,.37.01.56.01.61,0,1.25-.07,1.77-.42.71-.49.95-1.34,1.16-2.09.07-.25.14-.49.22-.73.26-.72.72-1.35,1.21-2.01.28-.38.57-.78.82-1.2.71-1.17,1.14-2.84.23-4.05-.12-.15-.25-.29-.39-.43-.18-.18-.35-.36-.44-.54-.2-.44-.04-.97.12-1.53.06-.22.13-.44.17-.65.45-2.15-.86-4-2.13-5.78-.31-.44-.62-.87-.9-1.31-.29-.45-.58-1.08-.36-1.51.08-.16.25-.31.38-.44.81-.72,1.52-1.07,2.14-1.07.1,0,.2,0,.3.03.59.11,1.06.56,1.56,1.03.11.1.21.2.32.3.69.61,1.39.93,2.02.93.23,0,.46-.04.67-.13,1.12-.47,1.43-1.92.83-3.87-.22-.71-.44-1.42-.66-2.13l-.57-1.83c-.15-.5-.31-1.03-.6-1.5-.07-.12-.16-.24-.24-.36-.16-.23-.3-.44-.37-.67-.16-.52.13-1.18.66-1.55.41-.29.96-.43,1.66-.43.1,0,.2,0,.3,0,.09,0,.19.02.3.02.23,0,.48-.04.7-.2.38-.29.43-.74.47-1.11v-.12c.17-1.49,1.61-2.77,3.07-2.77.04,0,.09,0,.13,0,.27.01.53.06.8.1.34.06.69.11,1.05.11.24,0,.49-.03.73-.1.73-.22,1.24-.77,1.72-1.3.11-.12.21-.23.32-.34.39-.4.93-.77,1.43-.77.11,0,.23.02.33.06.05.02.09.03.14.03.09,0,.19-.03.26-.1.11-.1.15-.26.1-.39-.41-1.19-.49-2.16-.25-2.96.25-.8,1-1.56,1.86-1.56.05,0,.1,0,.15,0,.01,0,.03,0,.04,0,.14,0,.25-.07.32-.18.08-.13.07-.28-.01-.41-.8-1.17-1.01-2.72-.58-4.25.43-1.53,1.42-2.74,2.71-3.32.13-.06.26-.11.4-.16.4-.16.81-.32,1.17-.6.17-.14.35-.28.53-.42,1.09-.89,1.99-1.55,2.89-1.55.52,0,1.03.22,1.58.73.08.08.16.16.23.24.2.21.4.42.66.59.34.22.74.33,1.18.33s.91-.11,1.38-.34c.49-.25.91-.57,1.33-.89.2-.15.39-.3.59-.44.98-.68,2.1-1.14,3.24-1.33.22-.03.48-.06.74-.06M45.99,0h0c-.33,0-.65.04-.85.07-1.26.21-2.49.71-3.56,1.45-.21.15-.42.3-.62.46-.38.29-.78.6-1.21.81-.35.17-.71.26-1.04.26-.29,0-.56-.07-.77-.21-.18-.12-.35-.29-.52-.47-.1-.11-.18-.19-.26-.27-.68-.64-1.36-.94-2.1-.94-1.17,0-2.21.78-3.36,1.72-.17.14-.35.28-.51.42-.27.21-.61.34-.98.49-.15.06-.29.11-.42.17-1.5.68-2.64,2.06-3.13,3.81-.43,1.52-.29,3.06.36,4.33-1.05.21-1.84,1.13-2.12,2.04-.25.82-.22,1.75.07,2.83-.87.03-1.62.71-1.91,1-.11.12-.22.24-.34.36-.44.48-.85.93-1.38,1.09-.15.04-.33.07-.52.07-.29,0-.59-.05-.91-.1-.3-.05-.59-.1-.9-.11-.05,0-.11,0-.16,0-1.87,0-3.61,1.57-3.81,3.44v.12c-.04.3-.07.5-.18.59-.03.02-.09.05-.26.05-.08,0-.17,0-.24-.01-.13,0-.25-.01-.36-.01-.85,0-1.55.19-2.09.57-.8.56-1.2,1.56-.95,2.39.1.33.29.62.46.87.08.11.15.22.22.33.25.4.38.85.53,1.33l.57,1.83c.22.71.44,1.43.66,2.14.36,1.19.45,2.59-.41,2.95-.11.05-.24.07-.38.07-.44,0-.98-.26-1.52-.74-.1-.09-.2-.19-.3-.28-.56-.53-1.13-1.07-1.94-1.22-.14-.03-.29-.04-.44-.04-.82,0-1.68.41-2.63,1.26-.18.17-.4.38-.55.65-.32.61-.19,1.37.39,2.27.29.45.6.89.91,1.33,1.24,1.74,2.4,3.37,2.01,5.2-.04.19-.1.39-.16.59-.19.64-.4,1.36-.09,2.05.15.31.38.55.59.76.12.13.23.24.32.36.69.91.31,2.25-.27,3.21-.24.39-.52.77-.79,1.14-.5.68-1.01,1.37-1.31,2.2-.09.24-.16.5-.23.75-.19.68-.38,1.36-.87,1.7-.3.2-.7.29-1.34.29-.18,0-.35,0-.53-.01-.21,0-.39-.01-.56-.01-.76,0-1.54.1-2.02.81-.45.65-.32,1.39-.19,2.11.06.35.12.66.11.96-.02.63-.35,1.25-.88,1.62-.29.2-.4.58-.26.91.22.52.36,1.07.42,1.65.03.24.16.45.37.57.12.07.25.1.38.1.1,0,.2-.02.29-.06.47-.2.86-.35,1.25-.35.06,0,.13,0,.19.01.1.01.19.03.27.05.15.03.33.08.52.08.02,0,.07,0,.09,0,.72-.05,1.13-.65,1.47-1.13.08-.11.15-.21.22-.3.54-.68,1.37-1.09,2.24-1.09.07,0,.15,0,.22,0,.32.03.69.1,1.04.18.53.11,1.03.21,1.47.21.62,0,1.1-.2,1.46-.6.73-.83.39-1.89.09-2.82-.15-.46-.3-.94-.33-1.37-.04-.6.24-1.22.76-1.67.41-.36.91-.56,1.4-.56.12,0,.24.01.36.04.47.1.9.45,1.03.83.07.21.24.38.45.46.08.03.17.05.26.05.13,0,.27-.04.38-.11.54-.32,1.16-.49,1.81-.49.53,0,1.04.12,1.48.34l.14.07c.3.16.6.3.93.3.02,0,.06,0,.08,0,.24-.01.6-.11.88-.49.34-.45.47-1.22.31-1.92l-.08-.35c-.18-.75-.29-1.31.01-1.68.24-.3.68-.4,1.15-.5.51-.11,1.09-.24,1.5-.67.47-.49.52-1.12.58-1.72.04-.42.07-.8.23-1.12.24-.47.74-.77,1.33-1.08.4-.22,1.34-.73,2.2-.73.4,0,.72.11.98.34.26.23.42.56.61.94.15.31.3.62.52.9.77.96,2.02,1.18,3.25,1.33.21.02.44.05.66.05.24,0,.46-.03.65-.1.86-.28,1.23-1.07,1.58-1.83.23-.51.46-.99.81-1.31.44-.38,1.07-.49,1.73-.59.39-.06.77-.13,1.14-.25.69-.22,1.29-.62,1.86-1,.3-.2.61-.4.92-.57.89-.48,2.66-1.32,4.4-1.53.3-.04.54-.24.63-.52,0-.03.02-.07.03-.09.07-.28.12-.56.18-.84.21-1.04.37-1.86,1.09-2.51.1-.09.24-.18.4-.27.23-.13.48-.29.71-.52.2-.21.34-.43.45-.62.12-.2.2-.33.31-.41.1-.07.22-.11.32-.11.04,0,.08,0,.1.02.2.14.35.27.48.38.42.36.79.68,1.77.83l.45.07c.84.13,1.71.27,2.6.27.11,0,.23,0,.34,0,2.66-.11,5.32-1.56,7.89-4.31.15-.16.31-.33.48-.5.98-1,2.08-2.14,2.3-3.5.22-1.37.43-2.22,1.51-2.62.27-.1.55-.17.85-.24.9-.22,1.92-.47,2.57-1.55.52-.87.72-1.93.55-3.01-.13-.8-.45-1.57-.93-2.22-.17-.23-.36-.44-.54-.64-.28-.31-.54-.61-.69-.93-.39-.85.03-1.92.59-2.56.72-.82,1.77-1.34,2.78-1.85.12-.06.23-.16.3-.27.41-.65.75-.76,1.56-.76.18,0,.37,0,.57.01h.42s.27.02.27.02h.3s0,0,.01,0c.24,0,.47-.12.61-.31.14-.2.18-.46.1-.69-.42-1.16-.88-2.11-1.42-2.91-1.06-1.59-2.81-2.62-4.47-2.62-.26,0-.52.03-.78.08-.28-.89-.93-2.52-2.39-2.66-.09-.01-.18-.01-.27-.02-.17,0-.3,0-.4-.04-.23-.09-.34-.34-.51-.74-.13-.32-.28-.68-.56-.95-.29-.28-.67-.43-1.13-.43-.37,0-.76.09-1.21.2-.37.09-.75.19-1.1.19-.2,0-.37-.03-.51-.1-.26-.13-.46-.36-.68-.62-.32-.38-.64-.75-.96-1.13l-.03-.04c-.31-.36-.62-.72-.92-1.09-.28-.31-.64-.71-1.17-.76,0,0-.06,0-.11,0-.27,0-.52.1-.73.29-.59.54-.65,1.58-.65,1.89-.02,1.19-.04,2.39-.05,3.6,0,.25-.02.48-.1.62-.21.38-.92.41-1.22.42-.12,0-.24,0-.37,0-1.09,0-1.7-.2-2.03-.66-.06-.08-.11-.17-.16-.27-.14-.24-.29-.52-.57-.7-.25-.15-.51-.21-.75-.24-.64-.11-1.4-.22-2.11-.22-.73,0-1.35.12-1.91.37-.16.08-.32.16-.48.25-.31.17-.56.32-.82.38-.09.02-.18.03-.27.03-.41,0-.83-.22-1.14-.6-.39-.47-.49-1.04-.27-1.49.11-.23.29-.45.48-.68.35-.43.7-.85.73-1.44.06-.84-.58-1.5-1.2-1.77-.34-.14-.71-.21-1.14-.21h0Z"/>
    </g>
  </g>
</svg>