<?xml version="1.0" encoding="UTF-8"?>
<svg id="Layer_2" xmlns="http://www.w3.org/2000/svg" viewBox="0 0 307.2 241.8">
  <defs>
    <style>
      .cls-1 {
        fill: #d60007;
        fill-rule: evenodd;
      }
    </style>
  </defs>
  <g id="Layer_2-2" data-name="Layer_2">
    <g id="Layer_1-2">
      <g id="Layer_2-2">
        <g id="Layer_1-2-2" data-name="Layer_1-2">
          <g>
            <path class="cls-1" d="M262.2,120.9c0-60.5-48.9-109.6-109.3-109.6S43.5,60.3,43.5,120.9s48.9,109.6,109.3,109.6,109.3-49.1,109.3-109.6h.1ZM273.4,120.9c0,66.8-54,120.9-120.6,120.9s-120.6-54.1-120.6-120.9S86.3,0,152.9,0s120.6,54.1,120.6,120.9h-.1Z"/>
            <polygon class="cls-1" points="126.7 116.4 80.1 45.1 227.4 45.1 115.4 209.9 0 45.1 39 45.1 115.4 150.8 166.9 77.8 139.7 77.8 146.4 87.9 126.7 116.4"/>
            <polygon class="cls-1" points="161.5 165.2 180.2 137.6 192.6 150.9 268.5 44.3 307.2 44.3 191.4 209.4 161.5 165.2"/>
          </g>
        </g>
      </g>
    </g>
  </g>
</svg>